<svg fill="#ffffff" version="1.1" id="Layer_1" xmlns="http://www.w3.org/2000/svg" xmlns:xlink="http://www.w3.org/1999/xlink" viewBox="0 0 511.999 511.999" xml:space="preserve" stroke="#ffffff"><g id="SVGRepo_bgCarrier" stroke-width="0"></g><g id="SVGRepo_tracerCarrier" stroke-linecap="round" stroke-linejoin="round"></g><g id="SVGRepo_iconCarrier"> <g> <g> <path d="M491.532,359.256v-81.62H312.695c-23.017,0-43.526,10.883-56.696,27.759c-13.17-16.875-33.679-27.759-56.696-27.759 H20.468v81.62H0v69.608h240.791h30.417h240.791v-69.608H491.532z M240.791,398.446H30.417v-8.773h210.374V398.446z M240.791,359.256H50.885v-10.393h130.35v-30.417H50.885v-10.393h148.419c22.877,0,41.487,18.611,41.487,41.487V359.256z M271.208,349.541c0-22.876,18.611-41.487,41.487-41.487h148.42v10.393H330.766v30.417h130.349v10.393H271.208V349.541z M271.208,398.446v-8.773h210.374v8.773H271.208z"></path> </g> </g> <g> <g> <rect x="240.793" y="83.135" width="30.417" height="104.909"></rect> </g> </g> <g> <g> <rect x="75.969" y="151.403" transform="matrix(0.7071 -0.7071 0.7071 0.7071 -117.4435 124.1805)" width="30.417" height="104.908"></rect> </g> </g> <g> <g> <rect x="292.752" y="138.138" transform="matrix(0.3827 -0.9239 0.9239 0.3827 71.4261 413.5922)" width="104.912" height="30.418"></rect> </g> </g> <g> <g> <rect x="151.587" y="100.889" transform="matrix(0.9239 -0.3827 0.3827 0.9239 -45.9864 75.5045)" width="30.418" height="104.912"></rect> </g> </g> <g> <g> <rect x="368.374" y="188.656" transform="matrix(0.7071 -0.7071 0.7071 0.7071 -20.8963 357.2805)" width="104.908" height="30.417"></rect> </g> </g> </g></svg>
