<svg fill="#ffffff" version="1.1" id="Layer_1" xmlns="http://www.w3.org/2000/svg" xmlns:xlink="http://www.w3.org/1999/xlink" viewBox="0 0 512.001 512.001" xml:space="preserve" stroke="#ffffff"><g id="SVGRepo_bgCarrier" stroke-width="0"></g><g id="SVGRepo_tracerCarrier" stroke-linecap="round" stroke-linejoin="round"></g><g id="SVGRepo_iconCarrier"> <g> <g> <path d="M267.711,183.002h-23.427c-69.564,0-126.158,56.594-126.158,126.158v76.684c0,69.564,56.594,126.158,126.158,126.158 h23.427c69.564,0,126.158-56.594,126.158-126.158V309.16C393.869,239.596,337.275,183.002,267.711,183.002z M290.855,216.254 c12.681,3.16,24.369,8.853,34.495,16.511h-15.082v30.417h41.399c3.343,6.079,6.044,12.558,8.012,19.347h-70.555 c6.319-10.017,9.991-21.862,9.991-34.556C299.116,236.743,296.239,225.863,290.855,216.254z M160.325,263.182h87.082v-30.417 h-60.764c14.464-10.941,32.119-17.871,51.299-19.131c17.323,1.895,30.757,16.788,30.757,34.34 c0,19.053-15.502,34.556-34.556,34.556h-81.83C154.282,275.742,156.982,269.263,160.325,263.182z M148.542,362.71h14.243v-30.417 h-14.243v-19.346h35.387c-6.319,10.017-9.991,21.862-9.991,34.555s3.672,24.538,9.991,34.556h-35.387V362.71z M237.944,481.369 c-19.18-1.26-36.835-8.19-51.3-19.131h60.764v-30.417h-87.081c-3.343-6.079-6.044-12.558-8.012-19.347h81.83 c19.053,0,34.556,15.502,34.556,34.556C268.701,464.581,255.266,479.474,237.944,481.369z M351.668,431.821H310.27v30.417h15.082 c-10.126,7.659-21.814,13.351-34.495,16.511c5.384-9.609,8.26-20.489,8.26-31.72c0-12.693-3.672-24.539-9.991-34.556h70.555 C357.711,419.262,355.011,425.741,351.668,431.821z M363.452,332.293H225.647v30.417h137.805v19.347H238.91 c-19.053,0-34.555-15.502-34.555-34.556c0-19.054,15.502-34.555,34.555-34.555h124.542V332.293z"></path> </g> </g> <g> <g> <path d="M254.72,30.46c5.481-0.34,10.689,1.528,14.659,5.259c3.976,3.737,6.166,8.797,6.166,14.248h30.417 c0-13.732-5.741-27.005-15.751-36.413C280.057,4.012,266.788-0.765,252.836,0.1c-25.071,1.557-45.15,21.637-46.705,46.706 c-1.367,22.01,12.127,42.627,32.815,50.138c1.102,0.4,1.842,1.515,1.842,2.772v24.817h30.417V99.716 c0-14.008-8.793-26.613-21.88-31.364c-8.223-2.985-13.381-10.885-12.837-19.66C237.085,39.066,245.094,31.057,254.72,30.46z"></path> </g> </g> <g> <g> <rect x="240.789" y="136.301" width="30.417" height="30.145"></rect> </g> </g> <g> <g> <rect x="65.334" y="181.058" transform="matrix(0.5451 -0.8384 0.8384 0.5451 -139.1825 162.9291)" width="30.418" height="57.317"></rect> </g> </g> <g> <g> <rect x="327.777" y="127.483" transform="matrix(0.3827 -0.9239 0.9239 0.3827 88.2015 417.3883)" width="57.317" height="30.418"></rect> </g> </g> <g> <g> <rect x="140.346" y="114.033" transform="matrix(0.9239 -0.3827 0.3827 0.9239 -42.7654 70.3917)" width="30.418" height="57.317"></rect> </g> </g> <g> <g> <rect x="402.8" y="194.514" transform="matrix(0.8384 -0.5451 0.5451 0.8384 -44.5847 269.0776)" width="57.317" height="30.418"></rect> </g> </g> </g></svg>
